Coordinates
version=1
nRows=13
nColumns=36
inDegrees=yes

Units are S.I. units (second, meters, Newtons, ...)
If the header above contains a line with 'inDegrees', this indicates whether rotational values are in degrees (yes) or radians (no).

endheader
time	pelvis_tilt	pelvis_list	pelvis_rotation	pelvis_tx	pelvis_ty	pelvis_tz	hip_flexion_r	hip_adduction_r	hip_rotation_r	knee_angle_r	knee_angle_r_beta	ankle_angle_r	subtalar_angle_r	mtp_angle_r	hip_flexion_l	hip_adduction_l	hip_rotation_l	knee_angle_l	knee_angle_l_beta	ankle_angle_l	subtalar_angle_l	mtp_angle_l	lumbar_extension	lumbar_bending	lumbar_rotation	arm_flex_r	arm_add_r	arm_rot_r	elbow_flex_r	pro_sup_r	arm_flex_l	arm_add_l	arm_rot_l	elbow_flex_l	pro_sup_l
      3.40000000	     -8.38310234	      2.38616176	      3.97861465	      0.23817914	      1.23526894	      0.01722022	      1.83294490	     -3.98268424	     -2.40183372	     28.16363099	      0.49154809	     -9.52446626	      2.56982723	     -7.49999987	      5.32936401	      0.91902302	     -6.54009383	     30.33303655	      0.52941136	    -15.33244475	     -0.26811687	     -7.49999987	      2.56047707	     -4.25130958	     -6.83811845	     -4.29184003	    -14.64137273	      9.38847880	    131.28695621	    100.42355426	     -4.58337777	     -7.60493833	     -0.52458520	    131.12779498	     93.54043947
      3.41666670	     -6.47472916	      1.95425919	      4.40380833	      0.25824784	      1.25572673	      0.01680277	      1.76742447	     -2.65335395	     -0.12442536	     32.09178736	      0.56010735	    -14.20540862	      0.70701791	     -7.49999987	      3.96859509	      0.89839131	     -3.34285916	     31.92630811	      0.55721919	    -17.49657983	      0.25255212	     -7.49999987	      1.13675660	     -3.51045562	     -7.77426689	     -6.31310072	    -15.66043502	      9.68355267	    133.43415865	     99.89495848	     -7.37650333	     -7.23020584	      0.45647859	    132.70650169	     93.27662899
      3.43333330	     -4.30844021	      1.57872116	      4.58265383	      0.27378842	      1.27283553	      0.01735107	      2.95624714	     -0.99906375	      2.37137306	     38.80591302	      0.67729095	    -15.20851448	      0.05685654	     -7.49999987	      3.65387142	      1.02225512	     -0.31170215	     35.81280836	      0.62505142	    -17.17425288	      1.10493839	     -7.49999987	     -1.14195093	     -2.83255040	     -8.26676887	     -8.09036128	    -16.25172631	     10.00283038	    134.29288590	     98.29045185	     -9.54661516	     -7.58243711	      1.49267510	    134.36140431	     92.18510710
      3.45000000	     -2.15320520	      1.48745444	      4.41867273	      0.28684007	      1.28648793	      0.01944517	      4.96330866	      0.35280158	      4.47442452	     46.73660356	      0.81570761	    -14.36120793	     -0.69630019	     -7.49999987	      4.55823435	      1.33528512	      1.08516595	     41.65804780	      0.72707009	    -16.05779460	      1.17336129	     -7.49999987	     -4.08777384	     -2.58118383	     -8.36723576	     -9.53809131	    -16.08702754	     10.49831253	    133.25994326	     95.77791905	    -11.27489678	     -8.34715339	      2.81101122	    135.43972845	     90.44670801
      3.46666670	     -0.56361412	      1.39689802	      4.20615441	      0.29946479	      1.29268142	      0.02065779	      7.99385025	      1.65964258	      5.85054670	     54.35680703	      0.94870525	    -11.41914230	     -1.62460131	     -7.49999987	      6.39310440	      1.36689488	      0.73875128	     47.88523808	      0.83575507	    -14.39608596	      0.97852165	     -7.49999987	     -6.96678007	     -2.41130629	     -8.91251064	    -11.09876742	    -15.33460272	     11.07059385	    131.11379331	     93.95739680	    -12.53398067	     -9.50061008	      4.61368902	    135.26902561	     89.39709798
      3.48333330	      0.75853419	      1.32084217	      4.07852956	      0.31522536	      1.29485456	      0.01965044	     10.65707840	      2.57612756	      6.72278422	     60.13437522	      1.04954284	     -7.42047963	     -2.97560565	     -7.49999987	      8.28127714	      1.17990389	     -0.34441892	     53.15410738	      0.92771418	    -12.41990777	     -0.56630632	     -7.49999987	     -9.16409322	     -2.25066424	     -8.77515109	    -11.32930068	    -14.70259243	     11.03439395	    127.43573872	     92.21814463	    -13.67332673	    -10.06794703	      5.92941689	    133.22418262	     88.25415676
      3.50000000	      1.54929872	      1.15639172	      4.19323303	      0.32915234	      1.29288021	      0.01819384	     13.35129659	      3.01394879	      7.12455256	     63.46225440	      1.10762529	     -3.42304878	     -5.40516361	     -7.49999987	     10.41857137	      0.86090972	     -1.57283756	     56.95108239	      0.99398390	    -11.01743566	     -1.78508424	     -7.49999987	    -10.98285129	     -1.79976599	     -8.82958529	    -11.21651830	    -14.06101126	     10.99594592	    123.44852499	     90.49546220	    -14.98107077	     -9.17264034	      7.37448311	    129.17116872	     86.97044655
      3.51666670	      1.30032293	      0.89276470	      4.34640439	      0.34450562	      1.28391521	      0.01760612	     16.74687826	      3.41184761	      7.63970311	     64.18435702	      1.12022836	      0.54034322	     -6.85085928	     -7.49999987	     13.24954907	      0.30972277	     -2.81982336	     59.13610787	      1.03211979	     -8.97699089	     -3.17420783	     -7.49999987	    -11.34987925	     -1.50431727	     -8.82424788	    -10.98506610	    -14.11173271	     11.13142723	    119.13503009	     89.09763898	    -16.60720761	     -7.68095468	      9.21283477	    125.32948390	     86.03570325
      3.53333330	      0.50658949	      0.54828849	      4.72737281	      0.36108010	      1.27294894	      0.01697884	     20.06164741	      3.35530048	      7.64874618	     62.22527084	      1.08603585	      2.00786164	     -7.35990560	     -7.49999987	     15.21909043	      0.01566627	     -3.94287718	     58.97377028	      1.02928646	     -5.87322244	     -2.18317500	     -7.49999987	    -10.82337010	     -1.20816314	     -8.47110942	    -10.77799057	    -14.82387514	     10.31546327	    114.51224891	     88.04537981	    -19.36551068	     -5.49417248	      9.27300183	    121.86964192	     85.45842155
      3.55000000	     -0.00879210	      0.49733631	      4.68527051	      0.37858138	      1.26846818	      0.01625053	     21.66761924	      2.75018900	      7.31109599	     58.12005849	      1.01438638	      0.49259489	     -8.71727217	     -7.49999987	     16.70790740	     -0.02098099	     -4.81675090	     55.50746270	      0.96878798	     -5.71694815	     -1.93283240	     -7.49999987	    -10.68802850	     -1.26924573	    -10.43777660	     -7.65061404	    -16.30686004	     13.12703342	    108.17671695	     88.40392879	    -23.05183753	     -3.19474034	      5.13826550	    118.84878215	     87.22301424
      3.56666670	     -0.52063352	      0.55960721	      4.77047831	      0.39364006	      1.26565613	      0.01555553	     22.42105962	      1.68383679	      6.57081128	     51.63599972	      0.90121821	     -2.06618297	     -8.20756125	     -7.49999987	     17.73143590	     -0.16550464	     -6.39622568	     49.81095391	      0.86936515	     -8.49897139	     -2.64122009	     -7.49999987	    -10.85901147	     -1.26866043	     -9.86261609	     -8.30944266	    -17.29585069	     12.26688674	    104.71499704	     87.68197694	    -23.69481127	     -3.39634084	      3.56452897	    114.75367910	     86.71240053
      3.58333330	     -0.96089637	      0.99988033	      4.58014896	      0.41179183	      1.25015749	      0.01704398	     22.48809212	      0.33509075	      5.66305786	     44.77051493	      0.78139289	     -5.87557877	     -6.87449340	     -7.49999987	     18.40198909	     -0.05714152	     -7.90919427	     42.99262205	      0.75036281	    -11.51564363	     -2.25777734	     -7.49999987	    -10.90280130	     -1.84119683	     -9.59724070	     -9.79466193	    -18.93357408	     11.90552257	    104.11041526	     87.48480134	    -25.51492439	     -4.00476052	      2.41997803	    113.88705508	     86.68647864
      3.60000000	     -1.40733666	      1.56833072	      4.35354030	      0.43075726	      1.23317914	      0.01763311	     22.72960511	     -1.13751340	      3.96511594	     38.22188107	      0.66709767	    -10.00894713	     -6.11660462	     -7.49999987	     18.78329177	      0.02643269	    -10.63142520	     36.36127352	      0.63462394	    -17.86928937	     -2.84411202	     -7.49999987	    -11.09278633	     -2.67667283	     -9.63860127	    -12.12347063	    -20.66109657	     11.73045119	    106.52918686	     88.01667133	    -27.95335896	     -5.01871980	      1.27806594	    115.29171924	     87.42973071
